REM DIRINDEX 1\2\5,1\2\6,1\2\7,1\2\8,1\3\9,1\3\10,1\3\11,1\4\12,1\4\13,1\4\14,1\4\15,1\4\16
REM DIRNAME cjc034,folder01,folder02,folder03,folder04,folder05,folder06,folder07,folder08,folder09,folder10,folder11,folder12,folder13,folder14,folder15
TITLE ""
FILE "1200_sec01_0067_0075.mp3" MP3
  TRACK 01 AUDIO
    TITLE "0:"
    INDEX 01 00:00:00
  TRACK 02 AUDIO
    TITLE "12:cjc034_03892"
    INDEX 01 00:00:19
  TRACK 03 AUDIO
    TITLE "0:"
    INDEX 01 00:01:40
  TRACK 04 AUDIO
    TITLE "13:cjc034_03893"
    INDEX 01 00:01:71
  TRACK 05 AUDIO
    TITLE "0:"
    INDEX 01 00:04:33
  TRACK 06 AUDIO
    TITLE "14:cjc034_03894"
    INDEX 01 00:04:70
  TRACK 07 AUDIO
    TITLE "0:"
    INDEX 01 00:06:14
  TRACK 08 AUDIO
    TITLE "15:cjc034_03895"
    INDEX 01 00:06:49
  TRACK 09 AUDIO
    TITLE "0:"
    INDEX 01 00:10:29
  TRACK 10 AUDIO
    TITLE "12:cjc034_03896"
    INDEX 01 00:11:60
  TRACK 11 AUDIO
    TITLE "0:"
    INDEX 01 00:12:73
  TRACK 12 AUDIO
    TITLE "13:cjc034_03897"
    INDEX 01 00:13:30
  TRACK 13 AUDIO
    TITLE "0:"
    INDEX 01 00:14:31
  TRACK 14 AUDIO
    TITLE "14:cjc034_03898"
    INDEX 01 00:14:66
  TRACK 15 AUDIO
    TITLE "0:"
    INDEX 01 00:16:04
  TRACK 16 AUDIO
    TITLE "15:cjc034_03899"
    INDEX 01 00:16:38
  TRACK 17 AUDIO
    TITLE "0:"
    INDEX 01 00:19:03
  TRACK 18 AUDIO
    TITLE "12:cjc034_03900"
    INDEX 01 00:20:39
  TRACK 19 AUDIO
    TITLE "0:"
    INDEX 01 00:21:51
  TRACK 20 AUDIO
    TITLE "13:cjc034_03901"
    INDEX 01 00:22:09
  TRACK 21 AUDIO
    TITLE "0:"
    INDEX 01 00:22:74
  TRACK 22 AUDIO
    TITLE "14:cjc034_03902"
    INDEX 01 00:23:32
  TRACK 23 AUDIO
    TITLE "0:"
    INDEX 01 00:24:45
  TRACK 24 AUDIO
    TITLE "15:cjc034_03903"
    INDEX 01 00:25:03
  TRACK 25 AUDIO
    TITLE "0:"
    INDEX 01 00:28:29
  TRACK 26 AUDIO
    TITLE "12:cjc034_03904"
    INDEX 01 00:29:64
  TRACK 27 AUDIO
    TITLE "0:"
    INDEX 01 00:31:02
  TRACK 28 AUDIO
    TITLE "13:cjc034_03905"
    INDEX 01 00:31:31
  TRACK 29 AUDIO
    TITLE "0:"
    INDEX 01 00:32:27
  TRACK 30 AUDIO
    TITLE "14:cjc034_03906"
    INDEX 01 00:32:58
  TRACK 31 AUDIO
    TITLE "0:"
    INDEX 01 00:33:69
  TRACK 32 AUDIO
    TITLE "15:cjc034_03907"
    INDEX 01 00:34:30
  TRACK 33 AUDIO
    TITLE "0:"
    INDEX 01 00:37:34
  TRACK 34 AUDIO
    TITLE "12:cjc034_03908"
    INDEX 01 00:38:69
  TRACK 35 AUDIO
    TITLE "0:"
    INDEX 01 00:39:54
  TRACK 36 AUDIO
    TITLE "13:cjc034_03909"
    INDEX 01 00:40:23
  TRACK 37 AUDIO
    TITLE "0:"
    INDEX 01 00:41:30
  TRACK 38 AUDIO
    TITLE "14:cjc034_03910"
    INDEX 01 00:41:65
  TRACK 39 AUDIO
    TITLE "0:"
    INDEX 01 00:42:51
  TRACK 40 AUDIO
    TITLE "15:cjc034_03911"
    INDEX 01 00:43:21
  TRACK 41 AUDIO
    TITLE "0:"
    INDEX 01 00:45:41
  TRACK 42 AUDIO
    TITLE "12:cjc034_03912"
    INDEX 01 00:47:05
  TRACK 43 AUDIO
    TITLE "0:"
    INDEX 01 00:48:12
  TRACK 44 AUDIO
    TITLE "13:cjc034_03913"
    INDEX 01 00:48:48
  TRACK 45 AUDIO
    TITLE "0:"
    INDEX 01 00:50:35
  TRACK 46 AUDIO
    TITLE "14:cjc034_03914"
    INDEX 01 00:51:03
  TRACK 47 AUDIO
    TITLE "0:"
    INDEX 01 00:52:04
  TRACK 48 AUDIO
    TITLE "15:cjc034_03915"
    INDEX 01 00:52:39
  TRACK 49 AUDIO
    TITLE "0:"
    INDEX 01 00:55:42
  TRACK 50 AUDIO
    TITLE "16:cjc034_03916"
    INDEX 01 00:57:03
  TRACK 51 AUDIO
    TITLE "0:"
    INDEX 01 00:58:66
  TRACK 52 AUDIO
    TITLE "12:cjc034_03917"
    INDEX 01 00:59:67
  TRACK 53 AUDIO
    TITLE "0:"
    INDEX 01 01:01:11
  TRACK 54 AUDIO
    TITLE "13:cjc034_03918"
    INDEX 01 01:01:42
  TRACK 55 AUDIO
    TITLE "0:"
    INDEX 01 01:04:03
  TRACK 56 AUDIO
    TITLE "14:cjc034_03919"
    INDEX 01 01:04:35
  TRACK 57 AUDIO
    TITLE "0:"
    INDEX 01 01:05:52
  TRACK 58 AUDIO
    TITLE "15:cjc034_03920"
    INDEX 01 01:06:10
  TRACK 59 AUDIO
    TITLE "0:"
    INDEX 01 01:08:68
  TRACK 60 AUDIO
    TITLE "12:cjc034_03921"
    INDEX 01 01:10:28
  TRACK 61 AUDIO
    TITLE "0:"
    INDEX 01 01:11:37
  TRACK 62 AUDIO
    TITLE "13:cjc034_03922"
    INDEX 01 01:11:72
  TRACK 63 AUDIO
    TITLE "0:"
    INDEX 01 01:12:73
  TRACK 64 AUDIO
    TITLE "14:cjc034_03923"
    INDEX 01 01:13:30
  TRACK 65 AUDIO
    TITLE "0:"
    INDEX 01 01:14:39
  TRACK 66 AUDIO
    TITLE "15:cjc034_03924"
    INDEX 01 01:14:74
  TRACK 67 AUDIO
    TITLE "0:"
    INDEX 01 01:17:22
  TRACK 68 AUDIO
    TITLE "12:cjc034_03925"
    INDEX 01 01:18:60
  TRACK 69 AUDIO
    TITLE "0:"
    INDEX 01 01:19:70
  TRACK 70 AUDIO
    TITLE "13:cjc034_03926"
    INDEX 01 01:20:30
  TRACK 71 AUDIO
    TITLE "0:"
    INDEX 01 01:21:37
  TRACK 72 AUDIO
    TITLE "14:cjc034_03927"
    INDEX 01 01:21:67
  TRACK 73 AUDIO
    TITLE "0:"
    INDEX 01 01:23:01
  TRACK 74 AUDIO
    TITLE "15:cjc034_03928"
    INDEX 01 01:23:36
  TRACK 75 AUDIO
    TITLE "0:"
    INDEX 01 01:26:62
